<?xml version="1.0"?>
<svg xmlns="http://www.w3.org/2000/svg" xmlns:xlink="http://www.w3.org/1999/xlink" xmlns:svgjs="http://svgjs.com/svgjs" version="1.1" width="512" height="512" x="0" y="0" viewBox="0 0 256 256" style="enable-background:new 0 0 512 512" xml:space="preserve" class=""><g><g xmlns="http://www.w3.org/2000/svg"><g><path d="m229.615 55.247c-22.682-31.624-59.729-52.247-101.615-52.247-68.855 0-125 55.847-125 125 0 .018.001.036.001.054.041 68.497 55.518 124.946 124.999 124.946 102.054 0 160.257-115.993 101.615-197.753z" fill="#ed4a8a" data-original="#f9a7a7" style="" class=""/></g><g><path d="m28.826 204.706c-.574 0-1.145-.246-1.54-.723-.706-.85-.588-2.111.262-2.816 21.865-18.147 34.406-44.816 34.406-73.167 0-28.282-12.49-54.908-34.267-73.051-.849-.707-.963-1.968-.256-2.817.708-.849 1.969-.963 2.817-.256 22.691 18.905 35.706 46.652 35.706 76.124 0 29.545-13.067 57.335-35.851 76.245-.374.31-.827.461-1.277.461z" fill="#a61d5d" data-original="#3762cc" style="" class=""/></g><g><path d="m211.186 222.355c-.204 0-.411-.031-.616-.098-40.998-13.267-68.543-51.147-68.543-94.257 0-43.019 27.468-80.873 68.349-94.195 1.054-.344 2.18.232 2.521 1.282.343 1.05-.231 2.179-1.281 2.521-39.23 12.784-65.589 49.11-65.589 90.392 0 41.37 26.433 77.72 65.774 90.452 1.051.34 1.627 1.468 1.287 2.519-.274.846-1.058 1.384-1.902 1.384z" fill="#a61d5d" data-original="#3762cc" style="" class=""/></g><g><path d="m125.575 253.845c-.669 0-1.323-.336-1.702-.946-20.638-33.272-32.004-77.628-32.004-124.899 0-47.341 11.395-91.745 32.086-125.03.583-.939 1.817-1.226 2.754-.643.938.583 1.226 1.816.643 2.754-20.302 32.661-31.483 76.314-31.483 122.919 0 46.536 11.153 90.144 31.404 122.79.582.938.293 2.171-.646 2.754-.328.204-.692.301-1.052.301z" fill="#a61d5d" data-original="#3762cc" style="" class=""/></g><g><path d="m128 146.456c-44.134 0-87.187-5.599-124.506-16.193-1.063-.301-1.679-1.407-1.377-2.47.301-1.063 1.409-1.681 2.47-1.378 36.968 10.494 79.643 16.041 123.413 16.041 43.91 0 86.702-5.58 123.75-16.136 1.06-.301 2.168.313 2.472 1.375.303 1.062-.313 2.168-1.376 2.471-37.4 10.657-80.571 16.29-124.846 16.29z" fill="#a61d5d" data-original="#3762cc" style="" class=""/></g><g><path d="m128 255c-69.985 0-126.957-56.947-126.999-126.944-.001-70.084 56.971-127.056 126.999-127.056 40.807 0 79.401 19.844 103.24 53.082 14.206 19.805 22.365 42.856 23.597 66.66 1.16 22.41-3.742 44.996-14.175 65.317-10.394 20.247-25.81 37.307-44.58 49.335-20.015 12.827-43.557 19.606-68.082 19.606zm0-250c-67.822 0-123 55.178-123 123 .042 67.846 55.219 123 123 123 46.854 0 87.642-24.96 109.104-66.768 21.245-41.384 17.753-90.361-9.114-127.819-23.09-32.193-60.469-51.413-99.99-51.413z" fill="#a61d5d" data-original="#3762cc" style="" class=""/></g></g></g></svg>
